<svg width="25" height="22" viewBox="0 0 25 22" fill="none" xmlns="http://www.w3.org/2000/svg">
<path d="M14.47 0.499998C8.53167 0.336664 3.66667 5.10833 3.66667 11H1.57833C1.05333 11 0.796667 11.63 1.17 11.9917L4.425 15.2583C4.65833 15.4917 5.02 15.4917 5.25333 15.2583L8.50833 11.9917C8.58895 11.9094 8.64342 11.8052 8.66488 11.692C8.68634 11.5788 8.67382 11.4619 8.6289 11.3558C8.58399 11.2498 8.50869 11.1594 8.41249 11.0961C8.31629 11.0328 8.2035 10.9993 8.08833 11H6C6 6.45 9.71 2.775 14.2833 2.83333C18.6233 2.89166 22.275 6.54333 22.3333 10.8833C22.3917 15.445 18.7167 19.1667 14.1667 19.1667C12.2883 19.1667 10.55 18.525 9.17333 17.44C8.94987 17.264 8.66951 17.1762 8.38556 17.1934C8.10161 17.2106 7.8339 17.3316 7.63333 17.5333C7.14333 18.0233 7.17833 18.8517 7.72667 19.2717C9.55965 20.7212 11.8298 21.5067 14.1667 21.5C20.0583 21.5 24.83 16.635 24.6667 10.6967C24.515 5.225 19.9417 0.651664 14.47 0.499998ZM13.875 6.33333C13.3967 6.33333 13 6.73 13 7.20833V11.5017C13 11.91 13.2217 12.295 13.5717 12.505L17.2117 14.6633C17.6317 14.9083 18.1683 14.7683 18.4133 14.36C18.6583 13.94 18.5183 13.4033 18.11 13.1583L14.75 11.1633V7.19666C14.75 6.73 14.3533 6.33333 13.875 6.33333Z" fill="#00B0D7"/>
</svg>
